# xmcd
#
# Track frame offsets:
#	183
#	12148
#	23940
#	38048
#	51235
#	62570
#	74865
#	85563
#	97760
#	113468
#	125728
#	136890
#	149783
#	160665
#	175235
#	188975
#
# Disc length: 2660 seconds
#
# Revision: 0
# Processed by: cddbd v1.5.1PL0 Copyright (c) Steve Scherf et al.
# Submitted via: EasyCDDAExtractor 8.2.3.1
#
DISCID=d90a6210
DTITLE=Various Artist - Unsere Märsches Vol. 4
DYEAR=1994
DGENRE=Big Band
TTITLE0=Schwarze Patten
TTITLE1=Bundesrat Von Moos-Marsch
TTITLE2=Akrobatik
TTITLE3=Reveille (Sängerfest-Marsch)
TTITLE4=Polizischt Wäckerli
TTITLE5=Marsch Des Zürcher Inf RGT 27
TTITLE6=Mutig Voran
TTITLE7=Ter. Regiment 78
TTITLE8=Sempione (Marcia Militare)
TTITLE9=Hector ed Denise
TTITLE10=Ceresio
TTITLE11=Zeughauskeller-Marsch
TTITLE12=Frei Wie Der Adler
TTITLE13=General Guisan-Marsch
TTITLE14=Gruss An Das Worblental
TTITLE15=Triumph
EXTD=
EXTT0=
EXTT1=
EXTT2=
EXTT3=
EXTT4=
EXTT5=
EXTT6=
EXTT7=
EXTT8=
EXTT9=
EXTT10=
EXTT11=
EXTT12=
EXTT13=
EXTT14=
EXTT15=
PLAYORDER=
